#!OML:ASF H:\IndianDance\Patient Classification 1\Patient 1\Session 1\dancer.ASF
:FULLY-SPECIFIED
:DEGREES
1434
root 1.0001 14.439 -4.54404 97.1426 -74.65 -89.4979
lowerback 4.33901 -3.77428 3.67487
upperback -7.63001 -4.56894 6.29142
thorax -10.3631 -2.36342 5.35604
lowerneck -10.5214 -13.7551 -7.61599
upperneck 19.4093 -18.5187 2.33567
head 8.7049 -9.20436 -0.13205
rclavicle 6.48535e-015 -6.36111e-015
rhumerus 3.65413 10.7958 -18.2189
rradius 29.6777
rwrist -26.9776
rhand -6.24394 2.85772
rfingers 7.12502
rthumb 19.5978 -26.1745
lclavicle 6.48535e-015 -6.36111e-015
lhumerus 15.7346 -47.8414 -5.0001
lradius 132.013
lwrist 34.2937
lhand -8.11024 11.6823
lfingers 7.12502
lthumb 17.8028 -1039.11
rfemur -34.5269 -15.7523 30.4939
rtibia 52.6695
rfoot -18.1609 -6.94848
rtoes -14.8671
lfemur -24.2737 30.6627 -33.0843
ltibia 63.9141
lfoot -6.76249 4.68802
ltoes -4.32918
1435
root 1.00813 14.445 -4.53639 94.826 -74.7591 -87.2416
lowerback 4.4635 -3.79256 3.4584
upperback -7.61484 -4.60351 6.18154
thorax -10.4083 -2.36224 5.37054
lowerneck -10.6991 -13.5245 -7.44374
upperneck 19.4124 -18.2028 2.33013
head 8.70368 -9.03948 -0.126666
rclavicle 3.15571e-014 -2.3059e-014
rhumerus 2.50178 11.5477 -18.0932
rradius 32.2457
rwrist -33.5968
rhand -5.31579 2.37262
rfingers 7.12502
rthumb 20.49 -26.5662
lclavicle 3.15571e-014 -2.3059e-014
lhumerus 15.2524 -47.4144 -4.63667
lradius 132.109
lwrist 37.3143
lhand -7.94071 12.3916
lfingers 7.12502
lthumb 17.9659 -1038.42
rfemur -34.412 -15.969 30.2998
rtibia 52.6258
rfoot -17.979 -7.28562
rtoes -15.0724
lfemur -24.6664 30.854 -32.1987
ltibia 67.0361
lfoot -7.57365 4.53678
ltoes -5.38104
1436
root 1.01582 14.456 -4.52496 92.2442 -74.8665 -84.8221
lowerback 4.66913 -3.80411 3.24668
upperback -7.55927 -4.62424 6.04112
thorax -10.4605 -2.35392 5.35151
lowerneck -10.8998 -13.2644 -7.24216
upperneck 19.4181 -17.8455 2.30723
head 8.70148 -8.85402 -0.126851
rclavicle 2.15184e-014 -1.59028e-014
rhumerus 1.18866 12.1498 -17.9851
rradius 35.1644
rwrist -40.4321
rhand -3.98472 1.85684
rfingers 7.12502
rthumb 21.7686 -26.939
lclavicle 2.15184e-014 -1.59028e-014
lhumerus 14.7625 -46.8987 -4.22881
lradius 132.089
lwrist 40.2928
lhand -7.46999 13.0453
lfingers 7.12502
lthumb 18.4188 -1037.81
rfemur -34.1089 -16.241 30.0257
rtibia 52.4655
rfoot -17.7561 -7.59632
rtoes -15.196
lfemur -24.9213 31.0629 -31.1143
ltibia 70.4335
lfoot -8.45621 4.83119
ltoes -6.07344
1437
root 1.02267 14.4716 -4.50957 89.4334 -74.9532 -82.276
lowerback 4.95506 -3.80493 3.0585
upperback -7.46656 -4.62465 5.87723
thorax -10.5245 -2.3368 5.29571
lowerneck -11.1393 -12.9714 -6.99968
upperneck 19.4487 -17.4393 2.23954
head 8.70492 -8.64599 -0.143883
rclavicle 4.91992e-015 -4.33351e-014
rhumerus -0.275321 12.6398 -17.8774
rradius 38.3866
rwrist -47.3406
rhand -2.33053 1.25757
rfingers 7.12502
rthumb 23.3563 -27.3454
lclavicle 4.91992e-015 -4.33351e-014
lhumerus 14.2688 -46.3191 -3.7879
lradius 131.948
lwrist 43.1001
lhand -6.77538 13.6405
lfingers 7.12502
lthumb 19.0868 -1037.28
rfemur -33.6133 -16.5599 29.6842
rtibia 52.188
rfoot -17.4906 -7.87807
rtoes -15.2559
lfemur -25.0109 31.2524 -29.7986
ltibia 73.9234
lfoot -9.45289 5.26783
ltoes -5.26043
1438
root 1.02871 14.4915 -4.49019 86.4864 -74.9795 -79.6781
lowerback 5.30794 -3.79108 2.93133
upperback -7.34452 -4.59675 5.70488
thorax -10.6037 -2.31001 5.19707
lowerneck -11.4211 -12.641 -6.71186
upperneck 19.5154 -16.9784 2.11712
head 8.71767 -8.41328 -0.181596
rclavicle -4.37823e-014 1.27222e-014
rhumerus -1.8671 13.0559 -17.762
rradius 41.852
rwrist -54.1875
rhand -0.390395 0.584384
rfingers 7.12502
rthumb 25.2164 -27.7696
lclavicle -4.37823e-014 1.27222e-014
lhumerus 13.7787 -45.6817 -3.33072
lradius 131.668
lwrist 45.6545
lhand -5.87584 14.1549
lfingers 7.12502
lthumb 19.9517 -1036.85
rfemur -32.9383 -16.9041 29.3244
rtibia 51.7797
rfoot -17.1732 -8.14485
rtoes -15.3014
lfemur -24.9527 31.4371 -28.2066
ltibia 77.3938
lfoot -10.4471 5.7249
ltoes -4.2129
1439
root 1.03419 14.5145 -4.46689 83.5147 -74.9249 -77.1118
lowerback 5.70192 -3.76214 2.89083
upperback -7.20418 -4.53857 5.53497
thorax -10.6962 -2.27494 5.05111
lowerneck -11.7483 -12.272 -6.38089
upperneck 19.6235 -16.4615 1.9395
head 8.7433 -8.1555 -0.240349
rclavicle -9.83984e-015 -7.95139e-015
rhumerus -3.55059 13.432 -17.6341
rradius 45.489
rwrist -60.8549
rhand 1.72572 -0.136224
rfingers 7.12502
rthumb 27.2422 -28.1888
lclavicle -9.83984e-015 -7.95139e-015
lhumerus 13.2902 -45.0121 -2.8761
lradius 131.246
lwrist 47.8794
lhand -4.89591 14.5836
lfingers 7.12502
lthumb 20.8934 -1036.52
rfemur -32.1289 -17.2606 28.9798
rtibia 51.2607
rfoot -16.8131 -8.39329
rtoes -15.3516
lfemur -24.8 31.6059 -26.3205
ltibia 80.789
lfoot -11.4431 6.0551
ltoes -3.33132
1440
root 1.03975 14.542 -4.4393 80.6801 -74.7728 -74.6979
lowerback 6.10966 -3.71563 2.95351
upperback -7.06314 -4.44544 5.38018
thorax -10.8055 -2.23082 4.8603
lowerneck -12.1406 -11.865 -6.00191
upperneck 19.8017 -15.89 1.69506
head 8.7951 -7.87382 -0.327367
rclavicle 1.04362e-014 -5.32743e-014
rhumerus -5.28891 13.8021 -17.4944
rradius 49.2256
rwrist -67.2052
rhand 3.89411 -0.858019
rfingers 7.12502
rthumb 29.3146 -28.5672
lclavicle 1.04362e-014 -5.32743e-014
lhumerus 12.8122 -44.3295 -2.44495
lradius 130.675
lwrist 49.7502
lhand -3.87797 14.8949
lfingers 7.12502
lthumb 21.8711 -1036.32
rfemur -31.2382 -17.5944 28.6905
rtibia 50.6337
rfoot -16.4066 -8.62265
rtoes -15.4045
lfemur -24.6203 31.7436 -24.1415
ltibia 84.0427
lfoot -12.4787 6.13101
ltoes -2.76572
1441
root 1.04726 14.5675 -4.40942 78.1001 -74.5439 -72.5139
lowerback 6.49788 -3.65111 3.10322
upperback -6.93579 -4.31933 5.242
thorax -10.9257 -2.17794 4.63295
lowerneck -12.5238 -11.4168 -5.60268
upperneck 19.9816 -15.2686 1.44796
head 8.84611 -7.56849 -0.411745
rclavicle 6.36111e-015 -2.54444e-014
rhumerus -7.0372 14.1761 -17.3493
rradius 52.9784
rwrist -73.0528
rhand 6.068 -1.48344
rfingers 7.12502
rthumb 31.3881 -28.8102
lclavicle 6.36111e-015 -2.54444e-014
lhumerus 12.3488 -43.6558 -2.05336
lradius 129.971
lwrist 51.3184
lhand -2.91967 15.1561
lfingers 7.12502
lthumb 22.7911 -1036.17
rfemur -30.3595 -17.8853 28.4692
rtibia 49.9471
rfoot -15.9422 -8.8579
rtoes -15.5444
lfemur -24.4993 31.8332 -21.7296
ltibia 87.1232
lfoot -13.5992 5.91755
ltoes -2.15047
1442
root 1.05682 14.595 -4.37602 75.888 -74.2662 -70.6374
lowerback 6.84128 -3.56621 3.31321
upperback -6.83665 -4.16061 5.12212
thorax -11.0545 -2.11485 4.38417
lowerneck -12.92 -10.9297 -5.17498
upperneck 20.1881 -14.6016 1.19033
head 8.90839 -7.24109 -0.500222
rclavicle 4.57205e-015 -1.70955e-014
rhumerus -8.74844 14.5673 -17.21
rradius 56.6755
rwrist -78.2279
rhand 8.27244 -1.9861
rfingers 7.12502
rthumb 33.486 -28.8825
lclavicle 4.57205e-015 -1.70955e-014
lhumerus 11.8919 -43.003 -1.70763
lradius 129.134
lwrist 52.6191
lhand -2.00533 15.3473
lfingers 7.12502
lthumb 23.6683 -1036.09
rfemur -29.5445 -18.0977 28.3094
rtibia 49.2092
rfoot -15.4282 -9.07801
rtoes -15.6813
lfemur -24.4776 31.8837 -19.1435
ltibia 89.9401
lfoot -14.7364 5.45132
ltoes -1.72221
1443
root 1.06725 14.6246 -4.33817 73.9933 -74.019 -69.0025
lowerback 7.10632 -3.46271 3.51185
upperback -6.76754 -3.98289 5.0013
thorax -11.168 -2.04358 4.13145
lowerneck -13.2972 -10.4066 -4.72778
upperneck 20.3914 -13.8982 0.951456
head 8.97016 -6.89444 -0.580309
rclavicle 3.67752e-014 -5.00937e-014
rhumerus -10.3823 14.981 -17.0874
rradius 60.2588
rwrist -82.6073
rhand 10.4905 -2.33804
rfingers 7.12502
rthumb 35.5914 -28.7539
lclavicle 3.67752e-014 -5.00937e-014
lhumerus 11.4361 -42.3813 -1.41098
lradius 128.171
lwrist 53.6974
lhand -1.08736 15.4897
lfingers 7.12502
lthumb 24.5485 -1036.06
rfemur -28.8159 -18.253 28.1296
rtibia 48.4519
rfoot -14.8884 -9.26227
rtoes -15.8559
lfemur -24.5496 31.8686 -16.5172
ltibia 92.4091
lfoot -15.867 4.8304
ltoes -1.66695
1444
root 1.07855 14.6565 -4.29556 72.4145 -73.8439 -67.6009
lowerback 7.2839 -3.33679 3.65785
upperback -6.72922 -3.78733 4.87297
thorax -11.2585 -1.96166 3.89015
lowerneck -13.6534 -9.84401 -4.25371
upperneck 20.5896 -13.1566 0.738114
head 9.03078 -6.52635 -0.65055
rclavicle 5.93372e-014 -3.10104e-014
rhumerus -11.9076 15.426 -16.9865
rradius 63.6973
rwrist -86.1684
rhand 12.6523 -2.54431
rfingers 7.12502
rthumb 37.6374 -28.4413
lclavicle 5.93372e-014 -3.10104e-014
lhumerus 10.9791 -41.7916 -1.16753
lradius 127.078
lwrist 54.5686
lhand -0.0607465 15.5823
lfingers 7.12502
lthumb 25.5322 -1036.11
rfemur -28.1813 -18.325 27.891
rtibia 47.6739
rfoot -14.3371 -9.39646
rtoes -15.9555
lfemur -24.7226 31.7803 -13.945
ltibia 94.4592
lfoot -16.9035 4.17
ltoes -1.84977
1445
root 1.09053 14.6914 -4.24781 71.0832 -73.7739 -66.3672
lowerback 7.37816 -3.18981 3.715
upperback -6.7187 -3.58084 4.72992
thorax -11.3228 -1.86951 3.6742
lowerneck -13.9875 -9.24461 -3.74986
upperneck 20.7761 -12.3816 0.552478
head 9.0882 -6.13838 -0.711053
rclavicle -5.81445e-014 4.77083e-014
rhumerus -13.2967 15.8972 -16.9166
rradius 66.9561
rwrist -88.9341
rhand 14.7452 -2.61699
rfingers 7.12502
rthumb 39.6118 -27.959
lclavicle -5.81445e-014 4.77083e-014
lhumerus 10.5203 -41.243 -0.983702
lradius 125.877
lwrist 55.2737
lhand 1.05825 15.6697
lfingers 7.12502
lthumb 26.6036 -1036.18
rfemur -27.6338 -18.3204 27.559
rtibia 46.8771
rfoot -13.7616 -9.49288
rtoes -16.0493
lfemur -24.9857 31.5985 -11.5197
ltibia 96.0345
lfoot -17.8761 3.5296
ltoes -2.16696
